<?xml version="1.0" standalone="no"?>
<!DOCTYPE svg PUBLIC "-//W3C//DTD SVG 20010904//EN"
 "http://www.w3.org/TR/2001/REC-SVG-20010904/DTD/svg10.dtd">
<svg version="1.0" xmlns="http://www.w3.org/2000/svg"
 width="180.000000pt" height="180.000000pt" viewBox="0 0 180.000000 180.000000"
 preserveAspectRatio="xMidYMid meet">
<metadata>
Created by potrace 1.11, written by Peter Selinger 2001-2013
</metadata>
<g transform="translate(0.000000,180.000000) scale(0.100000,-0.100000)"
fill="#000000" stroke="none">
<path d="M0 900 l0 -900 900 0 900 0 0 900 0 900 -900 0 -900 0 0 -900z m740
435 l0 -105 -30 0 -30 0 0 -75 0 -75 105 0 105 0 0 75 0 75 -30 0 -30 0 0 105
0 105 195 0 195 0 0 -105 0 -105 -30 0 -30 0 0 -75 0 -75 150 0 150 0 0 -105
0 -105 -30 0 -30 0 0 -135 0 -135 30 0 30 0 0 -105 0 -105 -195 0 -195 0 0
105 0 105 30 0 c20 0 30 5 30 15 0 12 -18 15 -105 15 -87 0 -105 -3 -105 -15
0 -10 10 -15 30 -15 l30 0 0 -105 0 -105 -195 0 -195 0 0 105 0 105 30 0 30 0
0 75 0 75 -63 0 c-62 0 -64 1 -120 51 l-57 51 0 189 0 189 -30 0 -30 0 0 105
0 105 195 0 195 0 0 -105z"/>
<path d="M380 1335 l0 -75 30 0 30 0 0 -199 0 -199 49 -41 c47 -40 51 -41 120
-41 l71 0 0 -105 0 -105 -30 0 -30 0 0 -75 0 -75 165 0 165 0 0 75 0 75 -30 0
c-29 0 -30 2 -30 45 l0 45 135 0 135 0 0 -45 c0 -43 -1 -45 -30 -45 l-30 0 0
-75 0 -75 165 0 165 0 0 75 0 75 -30 0 -30 0 0 165 0 165 30 0 30 0 0 75 0 75
-150 0 -150 0 0 105 0 105 30 0 30 0 0 75 0 75 -165 0 -165 0 0 -75 0 -75 30
0 30 0 0 -105 0 -105 -135 0 -135 0 0 105 0 105 30 0 30 0 0 75 0 75 -165 0
-165 0 0 -75z m300 0 c0 -43 -1 -45 -30 -45 l-30 0 0 -195 0 -195 30 0 c29 0
30 -2 30 -45 l0 -45 -66 0 c-59 0 -69 3 -104 33 l-40 32 0 208 0 207 -30 0
c-29 0 -30 2 -30 45 l0 45 135 0 135 0 0 -45z m480 0 c0 -43 -1 -45 -30 -45
l-30 0 0 -207 0 -208 -40 -32 c-35 -30 -45 -33 -104 -33 l-66 0 0 45 c0 43 1
45 30 45 l30 0 0 195 0 195 -30 0 c-29 0 -30 2 -30 45 l0 45 135 0 135 0 0
-45z m-240 -360 c0 -43 -1 -45 -30 -45 l-30 0 0 -75 0 -75 165 0 165 0 0 75 0
75 -30 0 c-29 0 -30 2 -30 45 l0 45 135 0 135 0 0 -45 c0 -43 -1 -45 -30 -45
l-30 0 0 -195 0 -195 30 0 c29 0 30 -2 30 -45 l0 -45 -135 0 -135 0 0 45 c0
43 1 45 30 45 l30 0 0 75 0 75 -165 0 -165 0 0 -75 0 -75 30 0 c29 0 30 -2 30
-45 l0 -45 -135 0 -135 0 0 45 c0 43 1 45 30 45 l30 0 0 195 0 195 -30 0 c-29
0 -30 2 -30 45 l0 45 135 0 135 0 0 -45z m240 -125 l0 -40 -47 0 -48 0 45 40
c25 21 46 39 48 40 1 0 2 -18 2 -40z"/>
</g>
</svg>
